<svg width="16" height="16" fill="none" xmlns="http://www.w3.org/2000/svg"><g clip-path="url(#clip0)" fill="#fff"><path d="M11.429 2.857H1.714C.768 2.857 0 3.625 0 4.571v9.715C0 15.232.768 16 1.714 16h9.715c.946 0 1.714-.768 1.714-1.714V4.57c0-.946-.768-1.714-1.714-1.714z"/><path d="M14.286 0H4c-.942 0-1.707.76-1.714 1.701v.013h9.143a2.86 2.86 0 012.857 2.857v9.143h.013A1.714 1.714 0 0016 12V1.714C16 .768 15.232 0 14.286 0z"/></g><defs><clipPath id="clip0"><path fill="#fff" d="M0 0h16v16H0z"/></clipPath></defs></svg>