<svg width="29" height="26" fill="none" xmlns="http://www.w3.org/2000/svg"><path d="M2.355 7.598h24.29a.56.56 0 00.565-.56C27.163 5.282 26.51 0 20.37 0H8.63C2.5 0 1.84 5.282 1.79 7.038c-.008.31.256.56.565.56zM21.794 4.23c.722 0 .722 1.12 0 1.12s-.722-1.12 0-1.12zm-3.323-2.24c.722 0 .722 1.12 0 1.12s-.722-1.12 0-1.12zm-3.972 0c.723 0 .723 1.12 0 1.12-.722 0-.722-1.12 0-1.12zm-3.197 2.128c.723 0 .723 1.12 0 1.12-.722 0-.722-1.12 0-1.12zM8.726 1.767c.722 0 .722 1.12 0 1.12s-.722-1.12 0-1.12zM5.925 4.119c.722 0 .722 1.12 0 1.12s-.722-1.12 0-1.12zM8.63 25.294h11.737c5.806 0 6.706-2.998 6.827-4.27.029-.307-.243-.559-.552-.559H2.355c-.31 0-.58.252-.55.56.125 1.271 1.032 4.269 6.825 4.269zm18.398-9.29a1.972 1.972 0 100-3.945H1.972a1.972 1.972 0 000 3.945h25.056z" fill="#fff"/></svg>