<svg fill="none" height="87" width="111" xmlns="http://www.w3.org/2000/svg" xmlns:xlink="http://www.w3.org/1999/xlink"><linearGradient id="a" gradientUnits="userSpaceOnUse" x1="50.416" x2="57.074" y1="-1.277" y2="55.119"><stop offset=".353" stop-color="#56cd30"/><stop offset="1" stop-color="#45a908"/></linearGradient><filter id="b" color-interpolation-filters="sRGB" filterUnits="userSpaceOnUse" height="86.599" width="109.59" x=".968" y="0"><feFlood flood-opacity="0" result="BackgroundImageFix"/><feColorMatrix in="SourceAlpha" result="hardAlpha" values="0 0 0 0 0 0 0 0 0 0 0 0 0 0 0 0 0 0 127 0"/><feOffset dy="-2"/><feGaussianBlur stdDeviation="5"/><feComposite in2="hardAlpha" operator="out"/><feColorMatrix values="0 0 0 0 0 0 0 0 0 0 0 0 0 0 0 0 0 0 0.15 0"/><feBlend in2="BackgroundImageFix" result="effect1_dropShadow"/><feBlend in="SourceGraphic" in2="effect1_dropShadow" result="shape"/></filter><g filter="url(#b)"><path d="m15.284 64.916c8.482-2.08 15.774-2.23 24.108 0-12.798-4.013-22.918-14.418-28.424-26.606 12.054.297 23.067 3.864 31.996 12.04-2.53-12.635-1.935-26.013 1.935-38.35 8.334 15.31 12.798 31.215 12.65 48.606 5.06-14.567 14.435-28.242 26.192-38.35-1.935 15.31-8.037 30.026-16.966 42.511 8.93-9.067 21.133-14.715 33.782-15.904-11.459 6.986-22.174 15.459-31.55 25.12-1.041 1.04-2.083 1.487-3.273 2.23a20.178 20.178 0 0 1 -2.233-6.986c-2.083 2.527-3.87 5.202-5.506 8.175-2.679-2.527-5.06-5.351-6.995-8.621.447 3.27.744 6.54 1.19 9.81 0 .149-11.458-1.932-12.649-2.23-8.483-2.526-17.114-6.094-24.257-11.445z" fill="url(#a)"/></g></svg>