<svg width="780" height="275" fill="none" xmlns="http://www.w3.org/2000/svg"><g filter="url(#filter0_d)"><path d="M726.468 118.729c-1.262-.289-2.695-.642-4.194-.826-7.874-1.454-15.825-1.175-22.973.587 1.945-29.606-21.71-56.892-56.507-62.799-13.632-2.292-27.075-.987-39.082 3.22-7.074-11.722-20.124-20.644-36.345-23.342-25.937-4.466-50.97 8.647-58.748 29.946-7.503-8.557-18.472-14.724-31.526-16.99-7.191-1.191-14.498-1.057-21.042.154-6.786-12.982-20.428-22.916-37.676-26.007-26.857-4.623-52.755 9.724-59.428 32.23-8.75-17.064-26.695-30.606-49.358-34.404-28.356-4.806-56.032 6.51-70.015 26.603-6.128-12.142-18.982-21.577-34.967-24.38-25.188-4.375-49.496 9.408-55.132 30.745-.342-.131-.92-.157-1.262-.288-18.575-3.21-36.835 3.494-47.227 15.761-1.946-.55-3.721-1.035-5.733-1.415-12.133-2.11-24.049 1.349-32.346 8.153-4.634 3.901-8.334 8.944-9.982 14.774a35.805 35.805 0 00-6.008-1.717c-14.553-2.45-28.644 5.657-31.282 18.157-2.703 12.671 6.96 24.798 21.512 27.248 5.864 1.074 11.632.349 16.597-1.858 1.93 17.973 17.355 33.485 38.756 36.995 11.384 2.017 22.645.266 31.997-4.176 4.037 10.948 14.537 19.872 28.511 22.295 10.293 1.794 20.358-.416 28.276-5.211 4.24 15.53 18.57 28.273 37.723 31.508 18.405 3.143 36.191-3.35 46.689-15.381 5.488 5.63 13.13 9.737 22.161 11.243 7.704 1.388 15.444.637 22.104-1.9 2.079 21.163 20.438 39.76 45.862 44.029 18.983 3.17 37.533-2.247 50.188-13.255 9.794 11.786 24.644 20.616 42.47 23.733 30.025 5.056 59.04-7.705 72.14-30.095 5.656 3.148 11.981 5.575 19 6.701 23.348 4.06 45.874-6.098 55.746-23.656 7.489 7.573 17.735 13.07 29.868 15.178 26.687 4.558 52.454-9.448 59.403-31.652 5.655 3.148 11.98 5.575 19 6.701 28.119 4.912 55.185-10.946 60.37-35.198 4.832-22.82-11.68-45.212-37.54-51.411z" fill="url(#paint0_linear)"/></g><defs><linearGradient id="paint0_linear" x1="450.63" y1="-19.686" x2="341.106" y2="265.831" gradientUnits="userSpaceOnUse"><stop stop-color="#B7EEFF"/><stop offset="1" stop-color="#E6F9FF"/></linearGradient><filter id="filter0_d" x=".182" y=".398" width="779.665" height="273.864" filterUnits="userSpaceOnUse" color-interpolation-filters="sRGB"><feFlood flood-opacity="0" result="BackgroundImageFix"/><feColorMatrix in="SourceAlpha" values="0 0 0 0 0 0 0 0 0 0 0 0 0 0 0 0 0 0 127 0" result="hardAlpha"/><feOffset dy="-4"/><feGaussianBlur stdDeviation="7.5"/><feComposite in2="hardAlpha" operator="out"/><feColorMatrix values="0 0 0 0 0 0 0 0 0 0 0 0 0 0 0 0 0 0 0.14 0"/><feBlend in2="BackgroundImageFix" result="effect1_dropShadow"/><feBlend in="SourceGraphic" in2="effect1_dropShadow" result="shape"/></filter></defs></svg>