<svg width="735" height="321" fill="none" xmlns="http://www.w3.org/2000/svg"><g filter="url(#filter0_d)"><path d="M676.839 273.123c-17.706 1.561-33.677-5.55-42.53-16.995-6.597 3.988-14.408 6.763-23.088 7.457-20.831 1.734-39.406-8.324-46.523-23.585-8.159 21.851-31.247 38.846-59.89 41.274-27.428 2.254-52.252-9.365-64.577-28.094-7.985 15.087-24.997 26.186-45.655 28.094-15.103 1.387-29.337-2.775-39.926-10.232-8.854 20.637-31.247 36.418-58.849 38.673-31.247 2.601-58.848-12.833-68.743-36.245-5.208 17.689-23.435 31.736-46.176 33.643-28.295 2.428-52.946-14.914-55.029-38.499v-1.561a55.49 55.49 0 01-17.359 4.336c-24.13 2.081-45.135-11.62-48.953-31.043-.521 0-.868.174-1.39.174-22.046 1.734-41.488-11.966-43.05-30.696-1.563-18.729 15.276-35.551 37.67-37.459 8.853-.693 17.359 1.041 24.302 4.509 0-.52-.173-1.214-.173-1.734-.868-10.232 1.91-19.943 7.29-28.441 9.722-14.914 27.776-25.84 49.128-27.747a69.084 69.084 0 0136.628 6.763 16.077 16.077 0 012.43-2.428c8.159-33.123 41.142-59.657 83.152-63.298 31.941-2.775 61.105 8.497 79.332 27.92 5.555-35.55 40.1-64.859 84.193-68.5 50.515-4.336 94.261 26.36 97.907 68.674.173 1.734.173 3.468.173 5.029 7.291-3.815 15.624-6.416 24.65-7.284 16.492-1.387 31.768 3.469 42.704 12.14 15.277 7.11 26.039 20.29 27.255 36.071.347 4.683 0 9.192-1.216 13.701 5.903-3.122 12.673-5.03 20.137-5.723 6.944-.521 13.714.173 19.79 1.907 16.318 4.856 28.469 17.342 29.685 32.777.52 6.59-.868 13.006-3.993 18.729 22.914.347 42.01 15.261 43.745 34.858 1.736 21.678-17.359 40.754-43.051 42.835z" fill="url(#paint0_linear)"/></g><defs><linearGradient id="paint0_linear" x1="235.739" y1="19.061" x2="525.611" y2="289.384" gradientUnits="userSpaceOnUse"><stop stop-color="#DEFFFB"/><stop offset="1" stop-color="#C0F5FF"/></linearGradient><filter id="filter0_d" x="0" y="0" width="735" height="321" filterUnits="userSpaceOnUse" color-interpolation-filters="sRGB"><feFlood flood-opacity="0" result="BackgroundImageFix"/><feColorMatrix in="SourceAlpha" values="0 0 0 0 0 0 0 0 0 0 0 0 0 0 0 0 0 0 127 0" result="hardAlpha"/><feOffset dy="-4"/><feGaussianBlur stdDeviation="7.5"/><feComposite in2="hardAlpha" operator="out"/><feColorMatrix values="0 0 0 0 0 0 0 0 0 0 0 0 0 0 0 0 0 0 0.1 0"/><feBlend in2="BackgroundImageFix" result="effect1_dropShadow"/><feBlend in="SourceGraphic" in2="effect1_dropShadow" result="shape"/></filter></defs></svg>