<svg width="638" height="428" fill="none" xmlns="http://www.w3.org/2000/svg"><g filter="url(#filter0_d)"><path d="M605.025 216.272c-5.455 17.243-24.415 26.899-42.408 21.862-.763-.277-1.526-.553-2.241-.674-.198 1.584-.659 3.418-1.167 5.098-5.454 17.242-24.414 26.899-42.407 21.861-6.32-1.807-11.571-5.125-15.612-9.488-6.964 21.768-30.986 34.317-53.82 27.871l-2.288-.83c-.32 2.3-.687 4.444-1.365 6.683-6.964 21.768-30.986 34.317-53.82 27.87-12.639-3.614-22.213-12.226-27.16-22.921-7.996 20.048-30.949 31.087-52.864 24.87-12.437-3.507-21.715-11.7-26.722-22.038-6.643 4.39-15.317 6.008-23.52 3.587-7.798-2.205-13.817-7.492-17.025-14.141-8.736 17.054-29.174 26.313-48.849 20.77-5.759-1.639-11.024-4.444-15.187-8.093-10.404 10.446-26.253 15.261-41.694 10.803-16.561-4.795-27.691-18.524-29.168-34-5.485 1.497-11.442 1.443-17.356-.149-11.876-3.338-20.194-12.839-22-23.811-5.268 1.092-10.914.944-16.315-.634-17.838-5.085-28.031-22.995-22.53-40.083 3.096-9.92 11.006-17.405 20.45-20.952a35.306 35.306 0 0118.736-1.456c.062-.358.278-.762.34-1.12 7.67-25.031 35.232-39.334 61.428-31.875 4.638 1.301 8.797 3.257 12.738 5.617 7.314-19.502 29.443-30.46 50.595-24.519 6.725 2.023 12.645 5.307 17.246 9.839 11.946-25.483 42.06-39.206 70.808-31.168 5.604 1.686 10.883 3.979 15.479 6.818.062-.357.17-.56.231-.917 6.917-21.923 30.986-34.317 53.82-27.87 4.841 1.409 9.202 3.473 13.082 6.19 8.296-2.859 17.549-3.129 26.623-.634 11.876 3.338 21.06 11.222 26.19 20.845 3.903 0 7.84.667 11.871 1.645 4.28 1.241 8.391 3.041 11.82 5.388 10.771-12.59 28.701-18.376 45.931-13.615 19.316 5.483 31.529 22.78 30.714 41.324 4.525-.189 9.285.398 13.924 1.7 12.078 3.446 21.309 11.484 26.378 21.464.047.155.094.31.296.418 7.331-3.243 15.882-4.147 24.241-1.773 17.79 4.929 28.031 22.995 22.577 40.238z" fill="#FBFEFF"/></g><defs><filter id="filter0_d" x="0" y="0" width="637.036" height="427.199" filterUnits="userSpaceOnUse" color-interpolation-filters="sRGB"><feFlood flood-opacity="0" result="BackgroundImageFix"/><feColorMatrix in="SourceAlpha" values="0 0 0 0 0 0 0 0 0 0 0 0 0 0 0 0 0 0 127 0" result="hardAlpha"/><feOffset dy="-4"/><feGaussianBlur stdDeviation="7.5"/><feComposite in2="hardAlpha" operator="out"/><feColorMatrix values="0 0 0 0 0 0 0 0 0 0 0 0 0 0 0 0 0 0 0.1 0"/><feBlend in2="BackgroundImageFix" result="effect1_dropShadow"/><feBlend in="SourceGraphic" in2="effect1_dropShadow" result="shape"/></filter></defs></svg>