<svg width="607" height="265" fill="none" xmlns="http://www.w3.org/2000/svg"><g filter="url(#filter0_d)"><path d="M588.064 179.76c-7.718 16.356-27.802 23.381-44.956 15.976-.719-.377-1.438-.753-2.131-.969-.408 1.544-1.111 3.299-1.84 4.895-7.718 16.356-27.802 23.381-44.957 15.976-6.02-2.639-10.778-6.631-14.198-11.497-9.821 20.637-35.309 29.85-57.072 20.399l-2.157-1.129c-.625 2.236-1.276 4.311-2.248 6.439-9.822 20.637-35.31 29.85-57.072 20.398-12.04-5.277-20.373-15.095-23.84-26.357-10.613 18.794-34.839 26.654-55.723 17.553-11.854-5.143-19.949-14.507-23.524-25.423-7.172 3.459-15.984 3.899-23.788.4-7.432-3.231-12.687-9.278-14.974-16.297-10.945 15.728-32.441 22.161-51.194 14.029-5.487-2.397-10.328-5.883-13.964-10.057-11.712 8.956-28.063 11.601-42.766 5.112-15.77-6.973-24.956-22.071-24.343-37.606-5.637.748-11.533-.105-17.18-2.475-11.321-4.901-18.289-15.433-18.606-26.547-5.368.375-10.943-.529-16.084-2.817-16.994-7.432-24.693-26.548-16.949-42.743 4.4-9.415 13.241-15.771 23.076-18.02a35.312 35.312 0 0118.762 1.07c.109-.345.378-.717.486-1.063 10.96-23.777 40.191-34.252 65.15-23.347 4.422 1.912 8.28 4.407 11.869 7.275 9.864-18.345 33.263-26.235 53.427-17.51 6.393 2.907 11.818 6.956 15.77 12.063 15.256-23.65 46.939-33.209 74.35-21.387 5.327 2.423 10.25 5.403 14.424 8.833.109-.346.243-.532.352-.878 9.796-20.797 35.309-29.85 57.072-20.399 4.608 2.046 8.653 4.676 12.134 7.89 8.604-1.72 17.81-.747 26.467 2.943 11.321 4.901 19.364 13.945 23.157 24.17 3.868.523 7.679 1.713 11.543 3.222 4.075 1.804 7.907 4.14 10.99 6.925 12.363-11.03 30.906-14.36 47.342-7.33 18.407 8.024 28.189 26.803 24.893 45.071 4.509.42 9.148 1.64 13.57 3.552 11.507 5.035 19.576 14.239 23.26 24.809.026.16.052.32.238.454 7.7-2.231 16.295-1.979 24.259 1.494 16.969 7.272 24.693 26.548 16.975 42.903z" fill="#FBFEFF"/></g><defs><filter id="filter0_d" x=".481" y=".915" width="605.581" height="264.05" filterUnits="userSpaceOnUse" color-interpolation-filters="sRGB"><feFlood flood-opacity="0" result="BackgroundImageFix"/><feColorMatrix in="SourceAlpha" values="0 0 0 0 0 0 0 0 0 0 0 0 0 0 0 0 0 0 127 0" result="hardAlpha"/><feOffset dy="-4"/><feGaussianBlur stdDeviation="7.5"/><feComposite in2="hardAlpha" operator="out"/><feColorMatrix values="0 0 0 0 0 0 0 0 0 0 0 0 0 0 0 0 0 0 0.1 0"/><feBlend in2="BackgroundImageFix" result="effect1_dropShadow"/><feBlend in="SourceGraphic" in2="effect1_dropShadow" result="shape"/></filter></defs></svg>