<svg width="529" height="279" fill="none" xmlns="http://www.w3.org/2000/svg"><g filter="url(#filter0_d)"><path d="M509.857 199.764c-9.45 16.713-33.576 23.217-53.744 14.704-.937-.425-1.699-.87-2.616-1.12-.52 1.658-1.215 3.336-2.261 5.055-9.45 16.713-33.556 23.392-53.919 14.724-7.107-3.09-12.756-7.412-16.733-12.637-11.946 21.262-42.615 29.583-68.562 18.716-.937-.425-1.699-.87-2.461-1.315-.81 2.224-1.62 4.448-2.801 6.537-11.947 21.262-42.616 29.583-68.562 18.716-14.214-6.179-23.961-16.778-28.002-28.743-13.065 19.26-42.101 26.328-66.759 15.845-13.998-5.848-23.55-16.292-27.726-27.887-8.681 3.307-18.993 3.249-28.5-.63-8.961-3.764-15.048-10.344-17.513-17.874-13.253 16.085-39.078 21.718-61.316 12.201-6.54-2.8-12.13-6.596-16.572-11.235-14.079 8.899-33.759 10.807-51.135 3.394-18.684-7.973-29.467-24.491-28.32-40.782-6.704.416-13.744-.55-20.48-3.505-13.452-5.734-21.526-17.235-21.804-28.923-6.393.025-13.103-1.157-19.273-3.821-20.167-8.513-28.918-28.993-19.645-45.686 5.461-9.685 15.924-16.037 27.807-17.76 7.15-1.176 14.871-.466 22.248 1.882.135-.37.446-.762.581-1.132 13.708-24.484 48.855-34.03 78.55-21.463 5.233 2.24 9.824 5.085 13.91 8.167 12.228-18.809 40.192-25.93 63.913-15.873 7.654 3.204 13.89 7.991 18.608 13.486 18.719-24.171 56.658-32.618 89.145-18.952 6.365 2.82 12.069 6.07 17.132 9.928.135-.371.29-.566.425-.937 12.142-21.107 42.811-29.428 68.757-18.561 5.428 2.394 10.215 5.395 14.341 8.828 10.326-1.365 21.324.034 31.418 4.378 13.452 5.733 22.923 15.476 27.214 26.525 4.525.723 9.306 2.126 13.601 3.94 4.862 2.106 9.258 4.796 13.148 7.723 14.909-10.948 37.159-13.685 56.585-5.442 21.866 9.383 33.248 29.561 28.856 48.534a54.97 54.97 0 0115.961 4.38c13.647 5.888 23.158 15.982 27.47 27.206.02.175.04.35.235.506 9.173-2.121 19.566-1.362 29.093 2.692 20.208 8.863 29.155 29.498 19.706 46.211z" fill="#CCF3FF"/></g><defs><filter id="filter0_d" x="-187.546" y=".51" width="716.174" height="278.402" filterUnits="userSpaceOnUse" color-interpolation-filters="sRGB"><feFlood flood-opacity="0" result="BackgroundImageFix"/><feColorMatrix in="SourceAlpha" values="0 0 0 0 0 0 0 0 0 0 0 0 0 0 0 0 0 0 127 0" result="hardAlpha"/><feOffset dy="-4"/><feGaussianBlur stdDeviation="7.5"/><feComposite in2="hardAlpha" operator="out"/><feColorMatrix values="0 0 0 0 0 0 0 0 0 0 0 0 0 0 0 0 0 0 0.1 0"/><feBlend in2="BackgroundImageFix" result="effect1_dropShadow"/><feBlend in="SourceGraphic" in2="effect1_dropShadow" result="shape"/></filter></defs></svg>