<svg width="444" height="321" fill="none" xmlns="http://www.w3.org/2000/svg"><g filter="url(#filter0_d)"><path d="M385.839 55.877c-17.706-1.56-33.677 5.55-42.53 16.995a52.633 52.633 0 00-23.088-7.457C299.39 63.681 280.815 73.74 273.698 89c-8.159-21.85-31.247-38.846-59.89-41.274-27.428-2.254-52.252 9.365-64.577 28.094-7.985-15.087-24.997-26.186-45.655-28.094-15.103-1.387-29.337 2.775-39.926 10.232C54.796 37.321 32.403 21.54 4.8 19.285c-31.246-2.601-58.848 12.833-68.743 36.245-5.208-17.689-23.435-31.736-46.176-33.643-28.295-2.428-52.946 14.914-55.029 38.499v1.56a55.486 55.486 0 00-17.359-4.335c-24.13-2.08-45.134 11.62-48.954 31.043-.52 0-.868-.174-1.388-.174-22.047-1.734-41.489 11.966-43.052 30.696-1.562 18.729 15.277 35.551 37.67 37.459 8.854.693 17.36-1.041 24.303-4.509 0 .52-.173 1.214-.173 1.734-.868 10.232 1.909 19.943 7.291 28.441 9.721 14.914 27.775 25.84 49.127 27.747a69.084 69.084 0 0036.628-6.763 16.077 16.077 0 002.43 2.428c8.159 33.123 41.142 59.657 83.152 63.298 31.94 2.775 61.105-8.497 79.332-27.92 5.555 35.551 40.1 64.859 84.193 68.501 50.515 4.335 94.261-26.36 97.907-68.675.173-1.734.173-3.468.173-5.029 7.291 3.815 15.624 6.417 24.65 7.284 16.492 1.387 31.768-3.469 42.704-12.14 15.277-7.11 26.039-20.29 27.255-36.071.347-4.683 0-9.192-1.216-13.701 5.903 3.122 12.673 5.03 20.137 5.723 6.944.521 13.714-.173 19.79-1.907 16.318-4.856 28.469-17.342 29.685-32.777.52-6.59-.868-13.006-3.993-18.729 22.914-.347 42.009-15.261 43.745-34.858 1.736-21.678-17.359-40.754-43.051-42.835z" fill="url(#paint0_linear)"/></g><defs><linearGradient id="paint0_linear" x1="-55.261" y1="309.939" x2="234.611" y2="39.616" gradientUnits="userSpaceOnUse"><stop stop-color="#DEFFFB"/><stop offset="1" stop-color="#C0F5FF"/></linearGradient><filter id="filter0_d" x="-291" y="0" width="735" height="321" filterUnits="userSpaceOnUse" color-interpolation-filters="sRGB"><feFlood flood-opacity="0" result="BackgroundImageFix"/><feColorMatrix in="SourceAlpha" values="0 0 0 0 0 0 0 0 0 0 0 0 0 0 0 0 0 0 127 0" result="hardAlpha"/><feOffset dy="-4"/><feGaussianBlur stdDeviation="7.5"/><feComposite in2="hardAlpha" operator="out"/><feColorMatrix values="0 0 0 0 0 0 0 0 0 0 0 0 0 0 0 0 0 0 0.1 0"/><feBlend in2="BackgroundImageFix" result="effect1_dropShadow"/><feBlend in="SourceGraphic" in2="effect1_dropShadow" result="shape"/></filter></defs></svg>