<svg width="526" height="272" fill="none" xmlns="http://www.w3.org/2000/svg"><g filter="url(#filter0_d)"><path d="M-178.67 139.79c6.069 18.215 28.501 29.224 49.927 24.736 1.001-.237 1.834-.528 2.782-.597.193 1.727.553 3.507 1.251 5.394 6.069 18.215 28.447 29.392 50.094 24.789 7.568-1.669 13.941-4.828 18.846-9.194 7.648 23.159 36.152 37.206 63.7 31.516 1.002-.238 1.835-.528 2.668-.819.37 2.338.738 4.676 1.497 6.953 7.648 23.158 36.152 37.206 63.7 31.515 15.135-3.339 26.734-11.872 32.994-22.841 9.13 21.408 36.272 33.912 62.483 28.352 14.859-3.055 26.236-11.474 32.558-22.053 7.886 4.91 18.017 6.831 28.092 4.847 9.517-1.976 16.752-7.267 20.615-14.185 9.923 18.328 34.189 28.809 57.839 23.731 6.956-1.493 13.169-4.148 18.419-7.849 12.111 11.434 31.06 17.08 49.535 13.136 19.866-4.242 33.616-18.386 35.614-34.594 6.5 1.693 13.595 2.095 20.772.487 14.302-3.048 24.432-12.788 26.946-24.206 6.27 1.25 13.081 1.377 19.647-.055 21.426-4.488 33.942-22.91 28.041-41.071-3.502-10.552-12.553-18.793-23.886-22.761-6.791-2.527-14.505-3.31-22.195-2.42-.062-.39-.292-.833-.353-1.223-8.759-26.657-41.424-42.766-72.978-36.126-5.565 1.195-10.617 3.107-15.217 5.348-8.396-20.804-34.475-33.156-59.684-27.833-8.126 1.677-15.164 5.18-20.849 9.668-13.736-27.312-49.352-42.877-83.856-35.693-6.788 1.547-13.009 3.643-18.718 6.458-.061-.39-.176-.611-.238-1.001-7.869-23.043-36.374-37.09-63.922-31.4-5.786 1.309-11.06 3.336-15.767 5.914-9.873-3.32-20.936-4.056-31.675-1.728C65.71 28.033 54.547 35.78 48.217 45.8c-4.58-.158-9.541.303-14.105 1.26-5.174 1.133-10.005 2.931-14.384 5.058-12.533-13.604-33.845-20.556-54.491-16.19-23.26 5.016-38.3 22.637-37.627 42.1a54.97 54.97 0 00-16.505 1.237c-14.523 3.163-25.793 11.245-32.177 21.435-.053.168-.106.336-.328.451-8.596-3.84-18.941-5.088-29.069-2.936-21.532 4.824-34.27 23.361-28.201 41.575z" fill="#EDFEFF"/></g><defs><filter id="filter0_d" x="-195.184" y=".534" width="720.994" height="271.38" filterUnits="userSpaceOnUse" color-interpolation-filters="sRGB"><feFlood flood-opacity="0" result="BackgroundImageFix"/><feColorMatrix in="SourceAlpha" values="0 0 0 0 0 0 0 0 0 0 0 0 0 0 0 0 0 0 127 0" result="hardAlpha"/><feOffset dy="-4"/><feGaussianBlur stdDeviation="7.5"/><feComposite in2="hardAlpha" operator="out"/><feColorMatrix values="0 0 0 0 0 0 0 0 0 0 0 0 0 0 0 0 0 0 0.1 0"/><feBlend in2="BackgroundImageFix" result="effect1_dropShadow"/><feBlend in="SourceGraphic" in2="effect1_dropShadow" result="shape"/></filter></defs></svg>