<svg width="714" height="88" fill="none" xmlns="http://www.w3.org/2000/svg"><g filter="url(#filter0_d)"><path d="M16.482-9.525c3.88-18.803 24.857-32.38 46.662-30.448 1.023.117 1.884.308 2.834.265-.013-1.738.136-3.548.606-5.505 3.88-18.803 24.784-32.54 46.823-30.52 7.712.765 14.413 3.15 19.798 6.908 4.865-23.898 31.515-41.208 59.542-38.804 1.022.117 1.884.308 2.745.498.091-2.365.182-4.73.667-7.081 4.865-23.898 31.514-41.207 59.542-38.804 15.422 1.532 27.946 8.638 35.456 18.793 6.542-22.335 32.021-37.951 58.705-35.52 15.116 1.283 27.406 8.302 34.931 18.062 7.252-5.805 17.086-8.907 27.324-8.124 9.684.84 17.493 5.242 22.144 11.655 7.693-19.369 30.555-32.637 54.638-30.383 7.083.663 13.566 2.567 19.215 5.623 10.679-12.782 28.831-20.622 47.642-18.883 20.228 1.871 35.549 14.295 39.444 30.156 6.255-2.448 13.253-3.683 20.57-2.933 14.561 1.341 25.768 9.819 29.61 20.861 6.079-1.98 12.829-2.909 19.518-2.261 21.805 1.931 36.405 18.749 32.686 37.48-2.234 10.89-10.25 20.141-21.036 25.418-6.446 3.309-14.014 4.996-21.756 5.019-.015.394-.191.861-.206 1.255-5.556 27.505-36.094 47.351-68.211 44.477-5.667-.53-10.909-1.834-15.741-3.518-5.885 21.65-30.327 36.99-55.988 34.675-8.266-.707-15.668-3.356-21.842-7.143-10.422 28.74-43.954 48.395-79.065 45.329-6.922-.736-13.348-2.085-19.348-4.207-.015.394-.103.628-.119 1.022-5.098 23.81-31.748 41.12-59.775 38.716-5.9-.618-11.376-2.01-16.354-4.014-9.413 4.46-20.312 6.495-31.251 5.449-14.561-1.34-26.56-7.717-34.027-16.922-4.529.697-9.51.824-14.154.411-5.273-.515-10.281-1.731-14.88-3.327-10.843 14.987-31.187 24.402-52.204 22.5-23.689-2.239-40.7-17.964-42.327-37.37a54.968 54.968 0 01-16.535.716c-14.795-1.429-26.94-8.127-34.48-17.492-.072-.161-.145-.322-.378-.41-8.084 4.827-18.21 7.286-28.52 6.343C27.434 26.184 12.601 9.278 16.481-9.525z" fill="#CCF3FF"/></g><defs><filter id="filter0_d" x=".865" y="-211.033" width="712.298" height="298.927" filterUnits="userSpaceOnUse" color-interpolation-filters="sRGB"><feFlood flood-opacity="0" result="BackgroundImageFix"/><feColorMatrix in="SourceAlpha" values="0 0 0 0 0 0 0 0 0 0 0 0 0 0 0 0 0 0 127 0" result="hardAlpha"/><feOffset dy="-4"/><feGaussianBlur stdDeviation="7.5"/><feComposite in2="hardAlpha" operator="out"/><feColorMatrix values="0 0 0 0 0 0 0 0 0 0 0 0 0 0 0 0 0 0 0.1 0"/><feBlend in2="BackgroundImageFix" result="effect1_dropShadow"/><feBlend in="SourceGraphic" in2="effect1_dropShadow" result="shape"/></filter></defs></svg>