<svg width="47" height="48" fill="none" xmlns="http://www.w3.org/2000/svg"><path d="M23.096 1.9a.5.5 0 01.808 0l7.567 10.348a1.5 1.5 0 00.743.54l12.18 3.999a.5.5 0 01.25.767L37.14 27.95a1.5 1.5 0 00-.284.873l-.039 12.82a.5.5 0 01-.653.475l-12.205-3.924a1.499 1.499 0 00-.918 0l-12.205 3.924a.5.5 0 01-.653-.474l-.039-12.82a1.5 1.5 0 00-.284-.874L2.356 17.554a.5.5 0 01.25-.767l12.18-3.999a1.5 1.5 0 00.743-.54L23.096 1.9z" fill="url(#paint0_linear)" stroke="#B06A00"/><defs><linearGradient id="paint0_linear" x1="10.728" y1="4.076" x2="33.717" y2="40.348" gradientUnits="userSpaceOnUse"><stop stop-color="#F89500"/><stop offset=".56" stop-color="#FFB800"/><stop offset=".758" stop-color="#FCEF00"/><stop offset="1" stop-color="#F9B300"/></linearGradient></defs></svg>